<svg width="16" height="16" viewBox="0 0 16 16" fill="none" xmlns="http://www.w3.org/2000/svg">
<path d="M9.08883 2.00726C9.83456 2.01603 10.7898 1.95247 11.5117 2.09125C12.2613 2.23537 12.7904 2.74309 13.1728 3.36761C13.462 3.83992 13.8327 4.33126 14.1113 4.82172C14.4102 5.32082 14.7916 5.78864 15.04 6.32367C15.4967 7.2209 14.7801 7.80626 14.2011 8.38519L13.2373 9.35394L9.7734 12.8139C9.37069 13.2213 8.69302 14.0333 8.12789 14.1245C7.46617 14.231 6.76546 13.3414 6.31735 12.893L4.50485 11.0707C3.65013 10.2331 2.80373 9.38611 1.96578 8.53168C1.43973 7.9868 0.474319 7.25473 0.93844 6.4057C1.56813 5.25383 2.36294 4.0964 3.09567 3.00433C3.49883 2.40373 4.24661 2.09095 4.94723 2.02484C5.04116 2.01123 5.32972 2.01013 5.43258 2.01019C6.65085 2.01461 7.87068 1.99293 9.08883 2.00726ZM9.77828 3.33246C9.53452 4.01579 9.23403 4.93085 8.95992 5.58734C8.68279 5.69927 8.41816 5.81693 8.13766 5.92328C7.65748 6.10533 7.10021 6.27629 6.63863 6.49359C6.92473 6.56756 8.75678 7.21105 8.95016 7.34222C9.07308 7.59053 9.74125 9.5606 9.79781 9.6059C9.96195 9.19432 10.1122 8.73515 10.2656 8.31586C10.358 8.06311 10.5409 7.59007 10.5986 7.34125C11.0474 7.14642 11.5373 6.97943 12.0009 6.81586C12.2762 6.71873 12.6747 6.56107 12.9453 6.4848C12.1855 6.16239 11.3758 5.90149 10.5879 5.57465C10.5667 5.43103 9.83623 3.3705 9.77828 3.33246Z" fill="#309EF4"/>
</svg>
